<?xml version="1.0" standalone="no"?>
<!DOCTYPE svg PUBLIC "-//W3C//DTD SVG 20010904//EN"
 "http://www.w3.org/TR/2001/REC-SVG-20010904/DTD/svg10.dtd">
<svg version="1.0" xmlns="http://www.w3.org/2000/svg"
 width="198.000000pt" height="198.000000pt" viewBox="0 0 198.000000 198.000000"
 preserveAspectRatio="xMidYMid meet">

<g transform="translate(0.000000,198.000000) scale(0.100000,-0.100000)"
fill="#000000" stroke="none">
<path d="M0 990 l0 -990 990 0 990 0 0 990 0 990 -990 0 -990 0 0 -990z m1027
153 c-2 -37 -3 -9 -3 62 0 72 1 102 3 68 2 -34 2 -93 0 -130z m-32 158 c-17
-17 -188 -112 -192 -107 -4 4 186 116 197 116 2 0 0 -4 -5 -9z m72 -178 c-2
-37 -3 -9 -3 62 0 72 1 102 3 68 2 -34 2 -93 0 -130z m40 -20 c-2 -37 -3 -9
-3 62 0 72 1 102 3 68 2 -34 2 -93 0 -130z m-108 153 c-12 -12 -195 -116 -203
-116 -13 0 184 119 198 119 5 1 7 -1 5 -3z m148 -183 c-2 -37 -3 -9 -3 62 0
72 1 102 3 68 2 -34 2 -93 0 -130z m40 -20 c-2 -37 -3 -9 -3 62 0 72 1 102 3
68 2 -34 2 -93 0 -130z m-187 163 c0 -3 -176 -110 -205 -124 -5 -3 -5 1 2 8 9
10 191 119 201 120 1 0 2 -2 2 -4z m-2 -51 c-14 -14 -191 -115 -202 -115 -12
0 184 119 198 119 5 1 7 -1 4 -4z m2 -39 c0 -7 -191 -116 -203 -116 -7 0 35
27 93 60 109 62 110 63 110 56z m108 -120 c45 -26 82 -50 82 -53 0 -2 -30 12
-67 33 -38 21 -85 47 -105 59 -21 11 -38 23 -38 27 0 8 13 1 128 -66z m-57
-13 c55 -31 97 -58 95 -60 -4 -4 -192 100 -205 113 -16 15 24 -4 110 -53z
m-37 -23 c53 -30 96 -58 96 -62 0 -4 -24 7 -52 24 -29 17 -75 44 -103 61 -27
16 -52 32 -55 34 -12 13 24 -5 114 -57z m-46 -20 c51 -29 96 -58 99 -64 4 -5
-11 0 -33 13 -21 13 -69 42 -106 63 -38 22 -68 42 -68 44 0 6 -8 10 108 -56z
m-10 -40 c40 -23 71 -44 69 -46 -4 -5 -163 87 -192 111 -23 19 6 4 123 -65z
m-521 -160 c4 -14 11 -19 23 -15 10 3 21 1 25 -5 3 -6 11 -7 17 -4 6 4 28 7
50 8 29 2 43 -3 53 -17 13 -18 14 -18 25 3 9 17 14 19 26 9 11 -9 18 -9 26 -1
16 16 34 15 52 -4 15 -14 16 -13 16 15 0 21 5 31 15 31 11 0 15 -12 15 -44 0
-25 5 -48 10 -51 14 -8 3 -25 -17 -25 -8 0 -17 10 -21 22 l-5 22 -8 -22 c-12
-32 -56 -30 -71 4 l-12 25 -13 -25 c-18 -34 -29 -33 -52 5 l-19 32 -4 -29 c-2
-23 -8 -29 -28 -30 -31 -2 -50 12 -50 37 0 27 -24 18 -30 -11 -9 -44 -35 -31
-35 18 0 56 -23 56 -27 0 -4 -59 -28 -63 -28 -4 0 39 -3 46 -20 46 -11 0 -20
7 -20 15 0 11 12 15 51 15 43 0 52 -3 56 -20z m477 14 c22 -8 20 -36 -1 -33
-34 3 -43 -1 -43 -21 0 -20 9 -24 43 -20 28 3 17 -34 -11 -38 -54 -8 -85 71
-40 102 25 18 30 19 52 10z m555 -54 c1 -46 -2 -60 -13 -60 -9 0 -16 12 -18
30 -2 24 -6 27 -18 19 -11 -8 -12 -12 -2 -16 16 -6 16 -33 -1 -33 -19 0 -37
21 -37 43 0 13 -5 17 -16 13 -9 -3 -20 -6 -25 -6 -5 0 -9 -4 -9 -9 0 -5 8 -8
18 -7 25 2 21 -28 -5 -32 -14 -2 -27 4 -35 17 -16 26 -26 27 -24 4 0 -12 -7
-19 -22 -21 -52 -8 -74 59 -27 80 20 9 28 8 42 -5 16 -13 21 -14 37 -1 11 7
29 11 43 8 17 -5 23 -2 23 10 0 20 26 21 34 1 9 -23 35 -19 29 5 -4 13 0 20
10 20 11 0 15 -14 16 -60z m-459 16 c16 -20 9 -56 -12 -70 -40 -24 -80 44 -42
71 23 17 39 16 54 -1z m97 -12 c11 -15 13 -15 13 -2 0 18 41 29 64 16 20 -11
23 -82 4 -76 -7 3 -14 14 -16 26 -5 30 -22 28 -22 -3 0 -22 -4 -24 -32 -22
-25 2 -34 8 -36 25 -5 31 -22 28 -22 -4 0 -35 -24 -26 -28 10 -2 15 -1 33 1
41 7 18 59 10 74 -11z m442 7 c18 -18 19 -18 24 -1 4 15 11 17 38 11 31 -6 34
-10 37 -45 2 -28 0 -37 -10 -34 -7 3 -14 14 -16 26 -5 30 -22 28 -22 -3 0 -16
-6 -25 -15 -25 -9 0 -15 9 -15 22 l0 22 -16 -22 c-26 -37 -74 -23 -74 23 0 44
37 58 69 26z"/>
<path d="M970 690 c0 -5 5 -10 10 -10 6 0 10 5 10 10 0 6 -4 10 -10 10 -5 0
-10 -4 -10 -10z"/>
<path d="M1510 690 c0 -5 5 -10 10 -10 6 0 10 5 10 10 0 6 -4 10 -10 10 -5 0
-10 -4 -10 -10z"/>
</g>
</svg>
